<svg xmlns="http://www.w3.org/2000/svg" viewBox="0 0 24 24" fill="none" stroke="currentColor" stroke-width="2" stroke-linecap="round" stroke-linejoin="round">
  <path d="M16 3h4a1 1 0 0 1 1 1v14h-2" />
  <path d="M10 17h6m-2-14v14" />
  <path d="M7 17h1" />
  <path d="M3 5a2 2 0 0 1 2-2h9a2 2 0 0 1 2 2v12h-1" />
  <circle cx="7.5" cy="17.5" r="2.5" />
  <circle cx="16.5" cy="17.5" r="2.5" />
  <path d="M5 10c3-2 6 0 9-2" />
  <path d="M8 8c0-2 4-1 4-3" />
  <path d="M4 12l2-2" />
  <path d="M2 14l2-2" />
</svg>